<mxfile host="app.diagrams.net" agent="Mozilla/5.0 (Windows NT 10.0; Win64; x64) AppleWebKit/537.36 (KHTML, like Gecko) Chrome/136.0.0.0 Safari/537.36" version="27.0.9">
  <diagram id="C5RBs43oDa-KdzZeNtuy" name="Page-1">
    <mxGraphModel dx="946" dy="563" grid="1" gridSize="10" guides="1" tooltips="1" connect="1" arrows="1" fold="1" page="1" pageScale="1" pageWidth="827" pageHeight="1169" math="0" shadow="0">
      <root>
        <mxCell id="WIyWlLk6GJQsqaUBKTNV-0" />
        <mxCell id="WIyWlLk6GJQsqaUBKTNV-1" parent="WIyWlLk6GJQsqaUBKTNV-0" />
        <mxCell id="zF9CBJ49sQ3NPbwAIvQL-0" value="&amp;lt;&amp;lt;interface&amp;gt;&amp;gt;&lt;div&gt;DataListener&lt;/div&gt;" style="swimlane;fontStyle=0;childLayout=stackLayout;horizontal=1;startSize=40;fillColor=none;horizontalStack=0;resizeParent=1;resizeParentMax=0;resizeLast=0;collapsible=1;marginBottom=0;whiteSpace=wrap;html=1;" vertex="1" parent="WIyWlLk6GJQsqaUBKTNV-1">
          <mxGeometry x="120" y="60" width="220" height="66" as="geometry" />
        </mxCell>
        <mxCell id="zF9CBJ49sQ3NPbwAIvQL-1" value="+ onDataReceived(rawData: String)" style="text;strokeColor=none;fillColor=none;align=left;verticalAlign=top;spacingLeft=4;spacingRight=4;overflow=hidden;rotatable=0;points=[[0,0.5],[1,0.5]];portConstraint=eastwest;whiteSpace=wrap;html=1;" vertex="1" parent="zF9CBJ49sQ3NPbwAIvQL-0">
          <mxGeometry y="40" width="220" height="26" as="geometry" />
        </mxCell>
        <mxCell id="zF9CBJ49sQ3NPbwAIvQL-4" value="WebSocketDataListener&amp;nbsp;" style="swimlane;fontStyle=0;childLayout=stackLayout;horizontal=1;startSize=26;fillColor=none;horizontalStack=0;resizeParent=1;resizeParentMax=0;resizeLast=0;collapsible=1;marginBottom=0;whiteSpace=wrap;html=1;" vertex="1" parent="WIyWlLk6GJQsqaUBKTNV-1">
          <mxGeometry x="10" y="428" width="210" height="52" as="geometry" />
        </mxCell>
        <mxCell id="zF9CBJ49sQ3NPbwAIvQL-5" value="&amp;nbsp;+ onDataReceived(rawData: String)" style="text;strokeColor=none;fillColor=none;align=left;verticalAlign=top;spacingLeft=4;spacingRight=4;overflow=hidden;rotatable=0;points=[[0,0.5],[1,0.5]];portConstraint=eastwest;whiteSpace=wrap;html=1;" vertex="1" parent="zF9CBJ49sQ3NPbwAIvQL-4">
          <mxGeometry y="26" width="210" height="26" as="geometry" />
        </mxCell>
        <mxCell id="zF9CBJ49sQ3NPbwAIvQL-8" value="DataSourceAdapter" style="swimlane;fontStyle=1;align=center;verticalAlign=top;childLayout=stackLayout;horizontal=1;startSize=26;horizontalStack=0;resizeParent=1;resizeParentMax=0;resizeLast=0;collapsible=1;marginBottom=0;whiteSpace=wrap;html=1;" vertex="1" parent="WIyWlLk6GJQsqaUBKTNV-1">
          <mxGeometry x="510" y="70" width="270" height="114" as="geometry" />
        </mxCell>
        <mxCell id="zF9CBJ49sQ3NPbwAIvQL-9" value="&lt;div&gt;- listener: DataListener&lt;/div&gt;&lt;div&gt;&lt;br&gt;&lt;/div&gt;&lt;div&gt;- parser: DataParser&lt;/div&gt;" style="text;strokeColor=none;fillColor=none;align=left;verticalAlign=top;spacingLeft=4;spacingRight=4;overflow=hidden;rotatable=0;points=[[0,0.5],[1,0.5]];portConstraint=eastwest;whiteSpace=wrap;html=1;" vertex="1" parent="zF9CBJ49sQ3NPbwAIvQL-8">
          <mxGeometry y="26" width="270" height="54" as="geometry" />
        </mxCell>
        <mxCell id="zF9CBJ49sQ3NPbwAIvQL-10" value="" style="line;strokeWidth=1;fillColor=none;align=left;verticalAlign=middle;spacingTop=-1;spacingLeft=3;spacingRight=3;rotatable=0;labelPosition=right;points=[];portConstraint=eastwest;strokeColor=inherit;" vertex="1" parent="zF9CBJ49sQ3NPbwAIvQL-8">
          <mxGeometry y="80" width="270" height="8" as="geometry" />
        </mxCell>
        <mxCell id="zF9CBJ49sQ3NPbwAIvQL-11" value="+ startListening()" style="text;strokeColor=none;fillColor=none;align=left;verticalAlign=top;spacingLeft=4;spacingRight=4;overflow=hidden;rotatable=0;points=[[0,0.5],[1,0.5]];portConstraint=eastwest;whiteSpace=wrap;html=1;" vertex="1" parent="zF9CBJ49sQ3NPbwAIvQL-8">
          <mxGeometry y="88" width="270" height="26" as="geometry" />
        </mxCell>
        <mxCell id="zF9CBJ49sQ3NPbwAIvQL-17" value="" style="endArrow=block;endSize=16;endFill=0;html=1;rounded=0;exitX=0.382;exitY=0.106;exitDx=0;exitDy=0;exitPerimeter=0;" edge="1" parent="WIyWlLk6GJQsqaUBKTNV-1" source="zF9CBJ49sQ3NPbwAIvQL-4" target="zF9CBJ49sQ3NPbwAIvQL-0">
          <mxGeometry width="160" relative="1" as="geometry">
            <mxPoint x="380" y="410" as="sourcePoint" />
            <mxPoint x="404" y="220" as="targetPoint" />
          </mxGeometry>
        </mxCell>
        <mxCell id="zF9CBJ49sQ3NPbwAIvQL-20" value="FileDataListener" style="swimlane;fontStyle=0;childLayout=stackLayout;horizontal=1;startSize=26;fillColor=none;horizontalStack=0;resizeParent=1;resizeParentMax=0;resizeLast=0;collapsible=1;marginBottom=0;whiteSpace=wrap;html=1;" vertex="1" parent="WIyWlLk6GJQsqaUBKTNV-1">
          <mxGeometry x="250" y="428" width="210" height="52" as="geometry" />
        </mxCell>
        <mxCell id="zF9CBJ49sQ3NPbwAIvQL-21" value="&lt;div&gt;&amp;nbsp;+ onDataReceived(rawData: String)&lt;/div&gt;&lt;div&gt;&lt;br&gt;&lt;/div&gt;" style="text;strokeColor=none;fillColor=none;align=left;verticalAlign=top;spacingLeft=4;spacingRight=4;overflow=hidden;rotatable=0;points=[[0,0.5],[1,0.5]];portConstraint=eastwest;whiteSpace=wrap;html=1;" vertex="1" parent="zF9CBJ49sQ3NPbwAIvQL-20">
          <mxGeometry y="26" width="210" height="26" as="geometry" />
        </mxCell>
        <mxCell id="zF9CBJ49sQ3NPbwAIvQL-22" value="DataParser" style="swimlane;fontStyle=0;childLayout=stackLayout;horizontal=1;startSize=26;fillColor=none;horizontalStack=0;resizeParent=1;resizeParentMax=0;resizeLast=0;collapsible=1;marginBottom=0;whiteSpace=wrap;html=1;" vertex="1" parent="WIyWlLk6GJQsqaUBKTNV-1">
          <mxGeometry x="550" y="380" width="230" height="52" as="geometry" />
        </mxCell>
        <mxCell id="zF9CBJ49sQ3NPbwAIvQL-23" value="&lt;div&gt;+ parse(rawData: String): PatientRecord&lt;/div&gt;" style="text;strokeColor=none;fillColor=none;align=left;verticalAlign=top;spacingLeft=4;spacingRight=4;overflow=hidden;rotatable=0;points=[[0,0.5],[1,0.5]];portConstraint=eastwest;whiteSpace=wrap;html=1;" vertex="1" parent="zF9CBJ49sQ3NPbwAIvQL-22">
          <mxGeometry y="26" width="230" height="26" as="geometry" />
        </mxCell>
        <mxCell id="zF9CBJ49sQ3NPbwAIvQL-24" value="Extends" style="endArrow=block;endSize=16;endFill=0;html=1;rounded=0;" edge="1" parent="WIyWlLk6GJQsqaUBKTNV-1" source="zF9CBJ49sQ3NPbwAIvQL-25" target="zF9CBJ49sQ3NPbwAIvQL-0">
          <mxGeometry width="160" relative="1" as="geometry">
            <mxPoint x="430" y="350" as="sourcePoint" />
            <mxPoint x="460" y="290" as="targetPoint" />
          </mxGeometry>
        </mxCell>
        <mxCell id="zF9CBJ49sQ3NPbwAIvQL-26" value="" style="endArrow=block;endSize=16;endFill=0;html=1;rounded=0;" edge="1" parent="WIyWlLk6GJQsqaUBKTNV-1" target="zF9CBJ49sQ3NPbwAIvQL-25">
          <mxGeometry width="160" relative="1" as="geometry">
            <mxPoint x="430" y="350" as="sourcePoint" />
            <mxPoint x="439" y="156" as="targetPoint" />
          </mxGeometry>
        </mxCell>
        <mxCell id="zF9CBJ49sQ3NPbwAIvQL-25" value="TCPDataListener" style="text;html=1;align=center;verticalAlign=middle;resizable=0;points=[];autosize=1;strokeColor=none;fillColor=none;" vertex="1" parent="WIyWlLk6GJQsqaUBKTNV-1">
          <mxGeometry x="370" y="350" width="120" height="30" as="geometry" />
        </mxCell>
        <mxCell id="zF9CBJ49sQ3NPbwAIvQL-27" value="" style="endArrow=block;endSize=16;endFill=0;html=1;rounded=0;exitX=0.4;exitY=0.135;exitDx=0;exitDy=0;exitPerimeter=0;" edge="1" parent="WIyWlLk6GJQsqaUBKTNV-1" source="zF9CBJ49sQ3NPbwAIvQL-20" target="zF9CBJ49sQ3NPbwAIvQL-0">
          <mxGeometry width="160" relative="1" as="geometry">
            <mxPoint x="330" y="598" as="sourcePoint" />
            <mxPoint x="643" y="320" as="targetPoint" />
          </mxGeometry>
        </mxCell>
        <mxCell id="zF9CBJ49sQ3NPbwAIvQL-28" value="" style="endArrow=open;endFill=1;endSize=12;html=1;rounded=0;entryX=0.348;entryY=0.106;entryDx=0;entryDy=0;entryPerimeter=0;" edge="1" parent="WIyWlLk6GJQsqaUBKTNV-1" source="zF9CBJ49sQ3NPbwAIvQL-8" target="zF9CBJ49sQ3NPbwAIvQL-22">
          <mxGeometry width="160" relative="1" as="geometry">
            <mxPoint x="550" y="240" as="sourcePoint" />
            <mxPoint x="710" y="240" as="targetPoint" />
          </mxGeometry>
        </mxCell>
        <mxCell id="zF9CBJ49sQ3NPbwAIvQL-29" value="" style="endArrow=open;endFill=1;endSize=12;html=1;rounded=0;" edge="1" parent="WIyWlLk6GJQsqaUBKTNV-1" source="zF9CBJ49sQ3NPbwAIvQL-8">
          <mxGeometry width="160" relative="1" as="geometry">
            <mxPoint x="300" y="310" as="sourcePoint" />
            <mxPoint x="510" y="280" as="targetPoint" />
          </mxGeometry>
        </mxCell>
        <mxCell id="zF9CBJ49sQ3NPbwAIvQL-30" value="DataListener" style="text;html=1;align=center;verticalAlign=middle;resizable=0;points=[];autosize=1;strokeColor=none;fillColor=none;" vertex="1" parent="WIyWlLk6GJQsqaUBKTNV-1">
          <mxGeometry x="435" y="278" width="90" height="30" as="geometry" />
        </mxCell>
        <mxCell id="zF9CBJ49sQ3NPbwAIvQL-31" value="DataStorage" style="text;html=1;align=center;verticalAlign=middle;resizable=0;points=[];autosize=1;strokeColor=none;fillColor=none;" vertex="1" parent="WIyWlLk6GJQsqaUBKTNV-1">
          <mxGeometry x="715" y="288" width="90" height="30" as="geometry" />
        </mxCell>
        <mxCell id="zF9CBJ49sQ3NPbwAIvQL-32" value="" style="endArrow=open;endFill=1;endSize=12;html=1;rounded=0;" edge="1" parent="WIyWlLk6GJQsqaUBKTNV-1" source="zF9CBJ49sQ3NPbwAIvQL-8" target="zF9CBJ49sQ3NPbwAIvQL-31">
          <mxGeometry width="160" relative="1" as="geometry">
            <mxPoint x="775" y="240" as="sourcePoint" />
            <mxPoint x="690" y="336" as="targetPoint" />
          </mxGeometry>
        </mxCell>
      </root>
    </mxGraphModel>
  </diagram>
</mxfile>
